# xmcd
#
# Track frame offsets:
#	150
#	23925
#	43497
#	61487
#	80522
#	99245
#	112172
#	128604
#	144867
#	162087
#	178612
#	195140
#	209352
#	229107
#	244340
#	257825
#
# Disc length: 3622 seconds
#
# Revision: 1
# Processed by: cddbd v1.5.1PL0 Copyright (c) Steve Scherf et al.
# Submitted via: audiograbber 1.83.01
#
DISCID=da0e2410
DTITLE=Various Artist - The Winners 2000 Disk1
DYEAR=2000
DGENRE=Country
TTITLE0=Graeme Connors - These Uncertain Times
TTITLE1=Crosby Sisters - Angel From Montgomery
TTITLE2=Troy Cassar Daley - They Don't Make 'Em Like That Anymore
TTITLE3=Felicity - Country Girl (In The Urban World)
TTITLE4=Brendon Walmsley - Rose and Rodeo
TTITLE5=John Williamson and Warren H Williams - A Thousand Feet
TTITLE6=Adam Brand and Melinda Schneider - Love Away The Night
TTITLE7=Renee Stewart - Kiss And Tell
TTITLE8=Adam Harvey - I Blame You
TTITLE9=Sherrie Austin - Never Been Kissed
TTITLE10=Troy Cassar Daley and Gina Jeffreys - Time To Say Goodbye
TTITLE11=Melinda Schneider - Love's Out To Get Me
TTITLE12=Michael O'Rourke with Tamika Kellehear - What If I Said
TTITLE13=Pru Clearwater - Big Old World
TTITLE14=Michael Fix - The Walk
TTITLE15=The Graduates - Razorback
EXTD=YEAR: 2000
EXTT0=
EXTT1=
EXTT2=
EXTT3=
EXTT4=
EXTT5=
EXTT6=
EXTT7=
EXTT8=
EXTT9=
EXTT10=
EXTT11=
EXTT12=
EXTT13=
EXTT14=
EXTT15=
PLAYORDER=
